#!OML:ASF F:\Work\Patient Classification 1\justin\Session 1\justin.ASF
:FULLY-SPECIFIED
:DEGREES
2041
root -0.0341037 16.3602 4.90657 -1.77113 62.1301 2.29252
lowerback 19.5384 -0.777493 4.92415
upperback 2.89803 0.331254 2.04834
thorax -7.78772 0.111284 -0.680923
lowerneck -1.21283 -12.3331 -22.888
upperneck 0.567604 -16.7518 19.7281
head 4.05812 -8.26194 8.69713
rclavicle -5.96354e-015 -3.97569e-014
rhumerus 4.6053 -37.9056 6.48316
rradius 32.5573
rwrist -18.9625
rhand -19.0481 20.3403
rfingers 7.12502
rthumb 7.25876 -9.51523
lclavicle -5.96354e-015 -3.97569e-014
lhumerus -4.66038 -0.304358 73.6236
lradius 141.567
lwrist 12.8329
lhand -15.3785 5.15772
lfingers 7.12502
lthumb 10.7997 34.8601
rfemur -25.8743 -7.96805 -1.8983
rtibia 51.307
rfoot -7.81753 -0.799338
rtoes -32.229
lfemur 1.10662 -1.89462 8.67096
ltibia 36.356
lfoot -5.52584 -11.211
ltoes -40.4482
2042
root -0.0924224 16.2407 5.01174 -0.724964 62.0312 4.0849
lowerback 19.8729 -0.711694 4.34649
upperback 3.03198 0.28936 1.77251
thorax -7.82481 0.105084 -0.641246
lowerneck -0.918511 -12.1698 -23.123
upperneck 0.52763 -16.5592 19.4075
head 3.94167 -8.1877 8.67545
rclavicle -2.54444e-014 -7.95139e-015
rhumerus 12.0006 -37.095 3.39806
rradius 31.3196
rwrist -16.2945
rhand -19.4477 20.6628
rfingers 7.12502
rthumb 6.87299 -9.20567
lclavicle -2.54444e-014 -7.95139e-015
lhumerus -4.58358 0.0727438 73.267
lradius 141.613
lwrist 12.2192
lhand -15.4643 5.07818
lfingers 7.12502
lthumb 10.7169 34.7848
rfemur -26.3501 -8.90258 -2.51118
rtibia 53.1102
rfoot -9.34641 -0.12659
rtoes -31.173
lfemur 1.62692 -2.0775 8.38433
ltibia 36.5258
lfoot -6.01655 -11.6912
ltoes -40.6685
2043
root -0.152064 16.1153 5.10524 0.0610503 61.9287 5.60933
lowerback 20.2969 -0.410558 4.20686
upperback 3.20107 0.656276 1.52733
thorax -7.85073 0.285598 -0.925536
lowerneck -0.502226 -12.2716 -23.743
upperneck 0.494195 -16.7785 19.4567
head 3.96604 -8.31975 8.77719
rclavicle 1.66979e-014 0
rhumerus 17.9954 -36.1655 1.45487
rradius 30.5378
rwrist -14.4682
rhand -19.6411 21.0077
rfingers 7.12502
rthumb 6.68627 -8.86674
lclavicle 1.66979e-014 0
lhumerus -4.09464 -0.654913 73.6082
lradius 141.58
lwrist 11.6096
lhand -15.5329 5.07603
lfingers 7.12502
lthumb 10.6507 34.7861
rfemur -26.8083 -9.67663 -3.07249
rtibia 54.9027
rfoot -10.4129 0.612063
rtoes -29.5696
lfemur 2.10618 -2.52519 8.14476
ltibia 36.8294
lfoot -6.28634 -12.066
ltoes -39.904
2044
root -0.209876 15.9922 5.17896 0.687592 61.829 6.92223
lowerback 20.7848 -0.13751 4.54643
upperback 3.33053 1.07929 1.11523
thorax -7.93567 0.475777 -1.68305
lowerneck -0.138198 -12.3865 -23.4921
upperneck 0.314076 -16.9789 19.1368
head 3.84 -8.43698 8.63245
rclavicle 7.17613e-014 -2.06736e-014
rhumerus 23.2382 -35.0537 -0.347511
rradius 29.9336
rwrist -13.4206
rhand -19.5291 20.9022
rfingers 7.12502
rthumb 6.79439 -8.96873
lclavicle 7.17613e-014 -2.06736e-014
lhumerus -3.50758 -1.64019 73.9988
lradius 141.544
lwrist 11.1236
lhand -15.3875 5.05679
lfingers 7.12502
lthumb 10.791 34.7596
rfemur -27.3505 -10.3038 -3.65802
rtibia 56.6255
rfoot -11.4224 1.48469
rtoes -28.7996
lfemur 2.43041 -3.23339 7.79442
ltibia 37.2824
lfoot -6.78474 -12.0054
ltoes -39.5165
2045
root -0.262741 15.8813 5.24635 1.68785 61.6551 8.59321
lowerback 21.1518 -0.0471487 4.78946
upperback 3.50332 1.22044 0.540313
thorax -7.91398 0.535117 -2.48992
lowerneck 0.47489 -12.497 -23.9446
upperneck -0.203014 -17.2202 19.2902
head 3.69264 -8.5835 8.7629
rclavicle 2.64384e-014 4.77083e-015
rhumerus 28.7376 -33.8496 -2.84369
rradius 29.2875
rwrist -12.5088
rhand -18.9339 20.8716
rfingers 7.12502
rthumb 7.36894 -8.98005
lclavicle 2.64384e-014 4.77083e-015
lhumerus -3.10467 -2.18526 73.9784
lradius 141.563
lwrist 10.5478
lhand -15.2843 4.923
lfingers 7.12502
lthumb 10.8906 34.6206
rfemur -27.9567 -10.8521 -4.47126
rtibia 58.2698
rfoot -12.1306 2.20214
rtoes -29.9699
lfemur 2.62704 -3.7565 7.17849
ltibia 37.9095
lfoot -7.39482 -11.8599
ltoes -39.4642
2046
root -0.310158 15.7897 5.3091 2.27366 61.3821 9.59358
lowerback 21.3565 -0.0271435 5.26108
upperback 3.67208 1.32849 0.131436
thorax -7.80675 0.57871 -3.23679
lowerneck 0.701788 -12.6643 -24.0321
upperneck -0.455301 -17.4579 18.9893
head 3.60559 -8.71029 8.66212
rclavicle -4.57205e-015 -6.36111e-015
rhumerus 33.9714 -32.411 -5.30608
rradius 28.8968
rwrist -11.0221
rhand -18.8296 21.7541
rfingers 7.12502
rthumb 7.4696 -8.09407
lclavicle -4.57205e-015 -6.36111e-015
lhumerus -2.76479 -2.65223 74.1996
lradius 141.582
lwrist 9.99426
lhand -14.9621 4.71471
lfingers 7.12502
lthumb 11.2013 34.3957
rfemur -28.6791 -10.9954 -4.92259
rtibia 59.7835
rfoot -12.682 2.8091
rtoes -30.301
lfemur 2.62669 -3.88614 6.96397
ltibia 38.6671
lfoot -7.85653 -12.1135
ltoes -39.298
2047
root -0.355209 15.7119 5.36476 2.51947 61.0514 9.8462
lowerback 21.353 0.0595857 5.9401
upperback 3.72853 1.57648 -0.0602819
thorax -7.69376 0.684253 -3.90011
lowerneck 0.732056 -12.86 -24.0739
upperneck -0.465347 -17.7122 18.6567
head 3.61748 -8.83725 8.52388
rclavicle -7.95139e-015 6.36111e-015
rhumerus 38.578 -30.9495 -7.53708
rradius 29.0072
rwrist -9.24911
rhand -18.9203 22.7184
rfingers 7.12502
rthumb 7.38209 -7.13281
lclavicle -7.95139e-015 6.36111e-015
lhumerus -2.60953 -3.56285 74.8918
lradius 141.599
lwrist 9.54211
lhand -15.2024 4.48535
lfingers 7.12502
lthumb 10.9695 34.1788
rfemur -29.6873 -10.7589 -4.97592
rtibia 61.1554
rfoot -13.2191 3.60413
rtoes -29.5644
lfemur 2.30734 -3.99482 7.03
ltibia 39.4424
lfoot -8.17416 -12.2466
ltoes -38.9714
2048
root -0.402842 15.6384 5.42384 2.53286 60.6687 9.48601
lowerback 21.0798 0.257084 6.66065
upperback 3.72741 1.96982 -0.0933814
thorax -7.47922 0.862779 -4.44314
lowerneck 0.660225 -13.0702 -23.8524
upperneck -0.571675 -17.9506 18.2678
head 3.58397 -8.94987 8.32903
rclavicle 5.04913e-014 -3.02153e-014
rhumerus 44.3103 -30.0606 -11.4866
rradius 28.6928
rwrist -6.01745
rhand -18.0299 22.4401
rfingers 7.12502
rthumb 8.24144 -7.37917
lclavicle 5.04913e-014 -3.02153e-014
lhumerus -2.58423 -4.87511 75.8296
lradius 141.617
lwrist 9.09305
lhand -16.0955 4.13776
lfingers 7.12502
lthumb 10.108 33.875
rfemur -30.9484 -10.2845 -4.5949
rtibia 62.4344
rfoot -13.8238 3.97966
rtoes -30.1373
lfemur 1.69666 -4.12382 7.3674
ltibia 40.2551
lfoot -8.27523 -11.9602
ltoes -37.1629
2049
root -0.450795 15.5769 5.48536 2.36683 60.3335 8.79291
lowerback 20.7357 0.580069 7.33749
upperback 3.68013 2.52255 0.0457004
thorax -7.25566 1.12132 -4.80654
lowerneck 0.838773 -13.3855 -23.4692
upperneck -0.942817 -18.3556 17.7353
head 3.43247 -9.15337 8.06909
rclavicle -2.24627e-014 3.65764e-014
rhumerus 48.3696 -28.1651 -13.4227
rradius 28.955
rwrist -4.32993
rhand -17.1372 22.0768
rfingers 7.12502
rthumb 9.10295 -7.70672
lclavicle -2.24627e-014 3.65764e-014
lhumerus -2.62533 -6.117 77.0798
lradius 141.765
lwrist 8.93805
lhand -16.0649 3.84691
lfingers 7.12502
lthumb 10.1375 33.5827
rfemur -32.2445 -9.70499 -3.90294
rtibia 63.6006
rfoot -14.3154 3.64475
rtoes -31.4295
lfemur 1.06099 -4.35229 7.91381
ltibia 40.9584
lfoot -7.99313 -11.563
ltoes -34.3195
2050
root -0.493694 15.5501 5.54488 2.89737 60.2682 8.90021
lowerback 20.508 0.791866 7.73532
upperback 3.54669 2.86477 0.0353792
thorax -7.21373 1.27257 -5.12317
lowerneck 1.1854 -13.8128 -22.9717
upperneck -1.16059 -18.9619 17.192
head 3.32323 -9.46601 7.77497
rclavicle 6.22196e-014 1.43125e-014
rhumerus 51.3759 -25.6474 -14.5339
rradius 29.4849
rwrist -3.90716
rhand -16.8013 23.7337
rfingers 7.12502
rthumb 9.42704 -6.03544
lclavicle 6.22196e-014 1.43125e-014
lhumerus -2.93158 -7.11582 78.2866
lradius 142.186
lwrist 9.4067
lhand -14.7348 4.00882
lfingers 7.12502
lthumb 11.4205 33.6778
rfemur -33.3452 -9.38619 -3.64442
rtibia 64.5659
rfoot -14.5605 3.36463
rtoes -31.4061
lfemur 0.148129 -4.29444 7.94628
ltibia 41.6197
lfoot -8.61508 -10.694
ltoes -37.4617
2051
root -0.535219 15.5323 5.60272 3.75831 60.3997 9.49686
lowerback 20.3602 0.870739 7.78053
upperback 3.45597 2.95673 -0.0552117
thorax -7.21361 1.31055 -5.26609
lowerneck 0.988971 -13.9485 -22.0526
upperneck -1.51164 -19.0363 16.4856
head 3.09813 -9.49034 7.42358
rclavicle -4.4329e-014 1.59028e-014
rhumerus 54.4178 -22.8884 -15.7895
rradius 30.1091
rwrist -4.00066
rhand -16.2085 25.0256
rfingers 7.12502
rthumb 9.99896 -4.71691
lclavicle -4.4329e-014 1.59028e-014
lhumerus -3.51506 -8.44176 79.4152
lradius 142.352
lwrist 8.43413
lhand -14.823 3.68457
lfingers 7.12502
lthumb 11.3355 33.3582
rfemur -34.1386 -9.26696 -3.72746
rtibia 65.4085
rfoot -15.0953 3.40027
rtoes -31.1776
lfemur -0.56703 -4.59795 7.7331
ltibia 42.0714
lfoot -8.89245 -10.2104
ltoes -37.558
